{"title":"Percy.Jackson.And.the.Olympians.The.Lightning.Thief.2010.Eng.LU","uid":5361829,"size":729335625,"categoryP":"video","categoryS":"movies","magnet":"?xt=urn:btih:d395c3f4656160ec5062bbd12521f4fcfc714440&amp;dn=Percy.Jackson.And.the.Olympians.The.Lightning.Thief.2010.Eng.LU&amp;tr=udp%3A%2F%2Ftracker.openbittorrent.com%3A80&amp;tr=udp%3A%2F%2Fopen.demonii.com%3A1337&amp;tr=udp%3A%2F%2Ftracker.coppersurfer.tk%3A6969&amp;tr=udp%3A%2F%2Fexodus.desync.com%3A6969","seeders":0,"leechers":1,"uploader":"raymondhome","files":-1,"time":1266129817,"description":"Love for All and Sharing is the first step to solving all the problems of humanity.\n\nWebsites I want to share.\n\n    &lt;a href=&quot;\nhttp://www.shareintl.org/&quot; rel=&quot;nofollow&quot; target=&quot;_NEW&quot;&gt;\nhttp://www.shareintl.org/&lt;/a&gt;\n\n    &lt;a href=&quot;\nhttp://www.lightmiddleway.com&quot; rel=&quot;nofollow&quot; target=&quot;_NEW&quot;&gt;\nhttp://www.lightmiddleway.com&lt;/a&gt;\n\n\nThank you very much\n\nNo credit for me...credit to EVERYONE for sharing\n &lt;a href=&quot;\nhttp://thepiratebay.se/user/raymondhome/&quot; rel=&quot;nofollow&quot; target=&quot;_NEW&quot;&gt;\nhttp://thepiratebay.se/user/raymondhome/&lt;/a&gt;\n\nDuration : 1h 51mn\nCopyright : http://uniongang.ru/\nVideo\nID : 0\nFormat : MPEG-4 Visual\nFormat profile : Advanced Simple@L5\nFormat settings, BVOP : Yes\nFormat settings, QPel : No\nFormat settings, GMC : No warppoints\nFormat settings, Matrix : Default (H.263)\nCodec ID : XVID\nCodec ID/Hint : XviD\nDuration : 1h 51mn\nBit rate : 745 Kbps\nWidth : 640 pixels\nHeight : 272 pixels\nDisplay aspect ratio : 2.35:1\nFrame rate : 25.000 fps\nResolution : 8 bits\nColorimetry : 4:2:0\nScan type : Progressive\nBits/(Pixel*Frame) : 0.171\nStream size : 592 MiB (84%)\nWriting library : XviD 1.2.1 (UTC 2008-12-04)\nAudio\nID : 1\nFormat : MPEG Audio\nFormat version : Version 1\nFormat profile : Layer 3\nCodec ID : 55\nCodec ID/Hint : MP3\nDuration : 1h 51mn\nBit rate mode : Constant\nBit rate : 128 Kbps\nChannel(s) : 2 channels\nSampling rate : 44.1 KHz\nStream size : 102 MiB (15%)\nAlignment : Split accross interleaves\nInterleave, duration : 40 ms (1.00 video frame)\nInterleave, preload duration : 500 ms\n\nNOTES: (NOT MINE)\nWell couldnt wait on english audio for this,wanted to see it lol\nSo i added mine its very clear as usual...be good enough untill a line audio comes out..\n\nVideo is ELEKTRI4KA thanks guys.\n\nUPLOADER NOTES:\nIN MY EXTREMELY HUMBLE OPINION...THIS IS PROBABLY THE BEST ONE (CAMRip) OUT SO FAR FOR THOSE WHO CAN'T WAIT...PLEASE COMMENT :)\n\ncredit 02ssei BIG TIME &amp; to all the people who made it possible for me to share this with everyone\n\n*****help what we can with haiti...the world is ONE big family*****","torrent":{"xt":"urn:btih:d395c3f4656160ec5062bbd12521f4fcfc714440","amp;dn":"Percy.Jackson.And.the.Olympians.The.Lightning.Thief.2010.Eng.LU","amp;tr":["udp%3A%2F%2Ftracker.openbittorrent.com%3A80","udp%3A%2F%2Fopen.demonii.com%3A1337","udp%3A%2F%2Ftracker.coppersurfer.tk%3A6969","udp%3A%2F%2Fexodus.desync.com%3A6969"],"infoHash":"d395c3f4656160ec5062bbd12521f4fcfc714440","infoHashBuffer":{"type":"Buffer","data":[211,149,195,244,101,97,96,236,80,98,187,209,37,33,244,252,252,113,68,64]},"announce":[],"urlList":[]}}